<svg width="163" height="32" viewBox="0 0 163 32" fill="none" xmlns="http://www.w3.org/2000/svg">
<rect width="32" height="32" rx="8" fill="black"/>
<path d="M8.89158 17.7995C8.72344 17.8001 8.55858 17.7524 8.41617 17.6618C8.27375 17.5713 8.15962 17.4417 8.08704 17.2882C8.01446 17.1346 7.98641 16.9633 8.00614 16.7942C8.02587 16.6251 8.09258 16.4651 8.19851 16.3329L16.9952 7.1553C17.0612 7.07818 17.1511 7.02606 17.2502 7.0075C17.3493 6.98895 17.4516 7.00505 17.5405 7.05318C17.6294 7.10131 17.6994 7.1786 17.7392 7.27237C17.779 7.36614 17.7861 7.4708 17.7593 7.5692L16.0533 12.9858C16.003 13.1221 15.9861 13.2688 16.0041 13.4132C16.022 13.5576 16.0743 13.6954 16.1565 13.8149C16.2386 13.9343 16.3481 14.0318 16.4756 14.0989C16.6031 14.1661 16.7448 14.2009 16.8886 14.2005H23.1084C23.2766 14.1999 23.4414 14.2476 23.5838 14.3382C23.7262 14.4287 23.8404 14.5583 23.913 14.7118C23.9855 14.8654 24.0136 15.0367 23.9939 15.2058C23.9741 15.3749 23.9074 15.5349 23.8015 15.6671L15.0048 24.8447C14.9388 24.9218 14.8489 24.9739 14.7498 24.9925C14.6507 25.0111 14.5484 24.9949 14.4595 24.9468C14.3706 24.8987 14.3006 24.8214 14.2608 24.7276C14.221 24.6339 14.2139 24.5292 14.2407 24.4308L15.9467 19.0142C15.997 18.8779 16.0139 18.7312 15.9959 18.5868C15.978 18.4424 15.9257 18.3046 15.8435 18.1851C15.7614 18.0657 15.6519 17.9682 15.5244 17.9011C15.3969 17.8339 15.2552 17.7991 15.1114 17.7995H8.89158Z" stroke="white" stroke-width="2" stroke-linecap="round" stroke-linejoin="round"/>
<path d="M46.3636 23H41.4347V8.45455H46.4631C47.9072 8.45455 49.1477 8.74574 50.1847 9.32812C51.2263 9.90578 52.0265 10.7367 52.5852 11.821C53.1439 12.9053 53.4233 14.2027 53.4233 15.7131C53.4233 17.2282 53.1416 18.5303 52.5781 19.6193C52.0194 20.7083 51.2121 21.544 50.1562 22.1264C49.1051 22.7088 47.8409 23 46.3636 23ZM44.0696 20.7202H46.2358C47.2491 20.7202 48.0942 20.5355 48.7713 20.1662C49.4484 19.7921 49.9574 19.2358 50.2983 18.4972C50.6392 17.7538 50.8097 16.8258 50.8097 15.7131C50.8097 14.6004 50.6392 13.6771 50.2983 12.9432C49.9574 12.2045 49.4531 11.6529 48.7855 11.2884C48.1226 10.919 47.2988 10.7344 46.3139 10.7344H44.0696V20.7202ZM60.6428 23.2131C59.549 23.2131 58.6044 22.9858 57.8089 22.5312C57.0182 22.072 56.4098 21.4233 55.9837 20.5852C55.5575 19.7424 55.3445 18.7505 55.3445 17.6094C55.3445 16.4872 55.5575 15.5024 55.9837 14.6548C56.4145 13.8026 57.0159 13.1397 57.7876 12.6662C58.5594 12.188 59.4661 11.9489 60.5078 11.9489C61.1802 11.9489 61.8146 12.0578 62.4112 12.2756C63.0125 12.4886 63.5429 12.8201 64.0021 13.2699C64.4661 13.7197 64.8307 14.2926 65.0959 14.9886C65.361 15.6799 65.4936 16.5038 65.4936 17.4602V18.2486H56.5518V16.5156H63.0291C63.0244 16.0232 62.9179 15.5852 62.7095 15.2017C62.5012 14.8134 62.21 14.508 61.8359 14.2855C61.4666 14.063 61.0357 13.9517 60.5433 13.9517C60.0178 13.9517 59.5561 14.0795 59.1584 14.3352C58.7607 14.5862 58.4505 14.9176 58.228 15.3295C58.0102 15.7367 57.8989 16.1842 57.8942 16.6719V18.1847C57.8942 18.8191 58.0102 19.3636 58.2422 19.8182C58.4742 20.268 58.7985 20.6136 59.2152 20.8551C59.6319 21.0919 60.1196 21.2102 60.6783 21.2102C61.0523 21.2102 61.3909 21.1581 61.6939 21.054C61.9969 20.9451 62.2597 20.7865 62.4822 20.5781C62.7048 20.3698 62.8729 20.1117 62.9865 19.804L65.3871 20.0739C65.2356 20.7083 64.9467 21.2623 64.5206 21.7358C64.0992 22.2045 63.5594 22.5691 62.9013 22.8295C62.2431 23.0852 61.4903 23.2131 60.6428 23.2131ZM70.2397 8.45455V23H67.6687V8.45455H70.2397ZM72.8835 23V12.0909H75.4545V23H72.8835ZM74.1761 10.5426C73.7689 10.5426 73.4186 10.4077 73.125 10.1378C72.8314 9.86316 72.6847 9.53409 72.6847 9.15057C72.6847 8.76231 72.8314 8.43324 73.125 8.16335C73.4186 7.88873 73.7689 7.75142 74.1761 7.75142C74.5881 7.75142 74.9384 7.88873 75.2273 8.16335C75.5208 8.43324 75.6676 8.76231 75.6676 9.15057C75.6676 9.53409 75.5208 9.86316 75.2273 10.1378C74.9384 10.4077 74.5881 10.5426 74.1761 10.5426ZM82.8427 27.3182C81.9194 27.3182 81.1263 27.1927 80.4634 26.9418C79.8005 26.6955 79.2679 26.3641 78.8654 25.9474C78.4629 25.5308 78.1836 25.0691 78.0273 24.5625L80.3427 24.0014C80.4469 24.2145 80.5984 24.4252 80.7972 24.6335C80.9961 24.8466 81.2636 25.0218 81.5998 25.1591C81.9407 25.3011 82.3692 25.3722 82.8853 25.3722C83.6145 25.3722 84.2182 25.1946 84.6964 24.8395C85.1746 24.4891 85.4137 23.9115 85.4137 23.1065V21.0398H85.2859C85.1533 21.3049 84.9592 21.5772 84.7035 21.8565C84.4525 22.1359 84.1187 22.3703 83.7021 22.5597C83.2901 22.7491 82.7717 22.8438 82.1467 22.8438C81.3086 22.8438 80.5487 22.6473 79.8668 22.2543C79.1897 21.8565 78.65 21.2647 78.2475 20.4787C77.8498 19.688 77.6509 18.6984 77.6509 17.5099C77.6509 16.312 77.8498 15.3011 78.2475 14.4773C78.65 13.6487 79.1921 13.0213 79.8739 12.5952C80.5558 12.1643 81.3157 11.9489 82.1538 11.9489C82.793 11.9489 83.3185 12.0578 83.7305 12.2756C84.1471 12.4886 84.4786 12.7467 84.7248 13.0497C84.971 13.348 85.158 13.6297 85.2859 13.8949H85.4279V12.0909H87.9634V23.1776C87.9634 24.1103 87.7409 24.8821 87.2958 25.4929C86.8507 26.1037 86.2423 26.5606 85.4705 26.8636C84.6987 27.1667 83.8228 27.3182 82.8427 27.3182ZM82.864 20.8267C83.4085 20.8267 83.8725 20.6941 84.256 20.429C84.6396 20.1638 84.9308 19.7827 85.1296 19.2855C85.3285 18.7884 85.4279 18.1918 85.4279 17.4957C85.4279 16.8092 85.3285 16.2079 85.1296 15.6918C84.9355 15.1757 84.6467 14.7756 84.2631 14.4915C83.8844 14.2027 83.418 14.0582 82.864 14.0582C82.2911 14.0582 81.8129 14.2074 81.4293 14.5057C81.0458 14.804 80.757 15.2135 80.5629 15.7344C80.3687 16.2505 80.2717 16.8376 80.2717 17.4957C80.2717 18.1634 80.3687 18.7481 80.5629 19.25C80.7617 19.7472 81.0529 20.1354 81.4364 20.4148C81.8247 20.6894 82.3005 20.8267 82.864 20.8267ZM93.1694 16.608V23H90.5984V8.45455H93.1126V13.9446H93.2404C93.4961 13.3291 93.8915 12.8437 94.4265 12.4886C94.9663 12.1288 95.6528 11.9489 96.4862 11.9489C97.2437 11.9489 97.9042 12.1075 98.4677 12.4247C99.0311 12.742 99.4667 13.206 99.7745 13.8168C100.087 14.4276 100.243 15.1733 100.243 16.054V23H97.6722V16.4517C97.6722 15.7178 97.4828 15.1473 97.104 14.7401C96.73 14.3281 96.2044 14.1222 95.5273 14.1222C95.0728 14.1222 94.6656 14.2216 94.3058 14.4205C93.9506 14.6146 93.6713 14.8963 93.4677 15.2656C93.2688 15.6349 93.1694 16.0824 93.1694 16.608ZM108.311 12.0909V14.0795H102.04V12.0909H108.311ZM103.588 9.47727H106.159V19.7188C106.159 20.0644 106.212 20.3295 106.316 20.5142C106.425 20.6941 106.567 20.8172 106.742 20.8835C106.917 20.9498 107.111 20.983 107.324 20.983C107.485 20.983 107.632 20.9711 107.765 20.9474C107.902 20.9238 108.006 20.9025 108.077 20.8835L108.51 22.8935C108.373 22.9408 108.176 22.9929 107.921 23.0497C107.67 23.1065 107.362 23.1397 106.998 23.1491C106.354 23.1681 105.774 23.071 105.257 22.858C104.741 22.6402 104.332 22.304 104.029 21.8494C103.73 21.3949 103.584 20.8267 103.588 20.1449V9.47727ZM120.465 23H115.536V8.45455H120.565C122.009 8.45455 123.249 8.74574 124.286 9.32812C125.328 9.90578 126.128 10.7367 126.687 11.821C127.246 12.9053 127.525 14.2027 127.525 15.7131C127.525 17.2282 127.243 18.5303 126.68 19.6193C126.121 20.7083 125.314 21.544 124.258 22.1264C123.207 22.7088 121.942 23 120.465 23ZM118.171 20.7202H120.337C121.351 20.7202 122.196 20.5355 122.873 20.1662C123.55 19.7921 124.059 19.2358 124.4 18.4972C124.741 17.7538 124.911 16.8258 124.911 15.7131C124.911 14.6004 124.741 13.6771 124.4 12.9432C124.059 12.2045 123.555 11.6529 122.887 11.2884C122.224 10.919 121.4 10.7344 120.415 10.7344H118.171V20.7202ZM134.744 23.2131C133.651 23.2131 132.706 22.9858 131.911 22.5312C131.12 22.072 130.511 21.4233 130.085 20.5852C129.659 19.7424 129.446 18.7505 129.446 17.6094C129.446 16.4872 129.659 15.5024 130.085 14.6548C130.516 13.8026 131.117 13.1397 131.889 12.6662C132.661 12.188 133.568 11.9489 134.609 11.9489C135.282 11.9489 135.916 12.0578 136.513 12.2756C137.114 12.4886 137.644 12.8201 138.104 13.2699C138.568 13.7197 138.932 14.2926 139.197 14.9886C139.463 15.6799 139.595 16.5038 139.595 17.4602V18.2486H130.653V16.5156H137.131C137.126 16.0232 137.019 15.5852 136.811 15.2017C136.603 14.8134 136.312 14.508 135.938 14.2855C135.568 14.063 135.137 13.9517 134.645 13.9517C134.119 13.9517 133.658 14.0795 133.26 14.3352C132.862 14.5862 132.552 14.9176 132.33 15.3295C132.112 15.7367 132 16.1842 131.996 16.6719V18.1847C131.996 18.8191 132.112 19.3636 132.344 19.8182C132.576 20.268 132.9 20.6136 133.317 20.8551C133.733 21.0919 134.221 21.2102 134.78 21.2102C135.154 21.2102 135.492 21.1581 135.795 21.054C136.098 20.9451 136.361 20.7865 136.584 20.5781C136.806 20.3698 136.974 20.1117 137.088 19.804L139.489 20.0739C139.337 20.7083 139.048 21.2623 138.622 21.7358C138.201 22.2045 137.661 22.5691 137.003 22.8295C136.345 23.0852 135.592 23.2131 134.744 23.2131ZM150.392 14.9744L148.049 15.2301C147.982 14.9934 147.866 14.7708 147.701 14.5625C147.54 14.3542 147.322 14.1861 147.047 14.0582C146.773 13.9304 146.436 13.8665 146.039 13.8665C145.504 13.8665 145.054 13.9825 144.689 14.2145C144.329 14.4465 144.152 14.7472 144.157 15.1165C144.152 15.4337 144.268 15.6918 144.505 15.8906C144.746 16.0895 145.144 16.2528 145.698 16.3807L147.559 16.7784C148.591 17.0009 149.358 17.3537 149.86 17.8366C150.366 18.3196 150.622 18.9517 150.627 19.733C150.622 20.4195 150.421 21.0256 150.023 21.5511C149.63 22.072 149.083 22.4792 148.382 22.7727C147.682 23.0663 146.877 23.2131 145.968 23.2131C144.632 23.2131 143.558 22.9337 142.743 22.375C141.929 21.8116 141.444 21.0279 141.287 20.0241L143.794 19.7827C143.908 20.2751 144.15 20.6468 144.519 20.8977C144.888 21.1487 145.369 21.2741 145.961 21.2741C146.571 21.2741 147.061 21.1487 147.431 20.8977C147.805 20.6468 147.992 20.3366 147.992 19.9673C147.992 19.6548 147.871 19.3968 147.63 19.1932C147.393 18.9896 147.024 18.8333 146.522 18.7244L144.661 18.3338C143.614 18.116 142.84 17.7491 142.338 17.233C141.837 16.7121 141.588 16.054 141.593 15.2585C141.588 14.5862 141.77 14.0038 142.14 13.5114C142.514 13.0142 143.032 12.6307 143.695 12.3608C144.363 12.0862 145.132 11.9489 146.003 11.9489C147.282 11.9489 148.288 12.2211 149.022 12.7656C149.76 13.3101 150.217 14.0464 150.392 14.9744ZM155.091 19.5767L155.083 16.473H155.495L159.416 12.0909H162.42L157.598 17.4602H157.065L155.091 19.5767ZM152.747 23V8.45455H155.318V23H152.747ZM159.593 23L156.042 18.0355L157.775 16.2244L162.669 23H159.593Z" fill="black"/>
</svg>
