<svg width="162" height="32" viewBox="0 0 162 32" fill="none" xmlns="http://www.w3.org/2000/svg">
<rect width="32" height="32" rx="8" fill="url(#paint0_linear_1_10)"/>
<path d="M7.99999 18C7.81076 18.0006 7.62522 17.9476 7.46495 17.847C7.30467 17.7464 7.17623 17.6024 7.09454 17.4317C7.01286 17.261 6.98129 17.0706 7.00349 16.8827C7.0257 16.6947 7.10077 16.517 7.21999 16.37L17.12 6.17C17.1943 6.08428 17.2955 6.02635 17.407 6.00573C17.5185 5.9851 17.6337 6.00301 17.7337 6.0565C17.8337 6.10999 17.9126 6.19589 17.9573 6.3001C18.0021 6.40431 18.0101 6.52064 17.98 6.63L16.06 12.65C16.0034 12.8015 15.9844 12.9645 16.0046 13.125C16.0248 13.2855 16.0837 13.4387 16.1761 13.5714C16.2685 13.7042 16.3918 13.8125 16.5353 13.8872C16.6788 13.9618 16.8382 14.0005 17 14H24C24.1892 13.9994 24.3748 14.0524 24.535 14.153C24.6953 14.2536 24.8238 14.3976 24.9054 14.5683C24.9871 14.739 25.0187 14.9294 24.9965 15.1173C24.9743 15.3053 24.8992 15.483 24.78 15.63L14.88 25.83C14.8057 25.9157 14.7045 25.9736 14.593 25.9943C14.4815 26.0149 14.3663 25.997 14.2663 25.9435C14.1663 25.89 14.0874 25.8041 14.0427 25.6999C13.9979 25.5957 13.9899 25.4793 14.02 25.37L15.94 19.35C15.9966 19.1985 16.0156 19.0355 15.9954 18.875C15.9752 18.7145 15.9163 18.5613 15.8239 18.4286C15.7315 18.2958 15.6082 18.1875 15.4647 18.1128C15.3212 18.0382 15.1617 17.9995 15 18H7.99999Z" stroke="white" stroke-width="2" stroke-linecap="round" stroke-linejoin="round"/>
<path d="M44.929 21.4652H40V6.91974H45.0284C46.4725 6.91974 47.7131 7.21093 48.75 7.79332C49.7917 8.37097 50.5919 9.20194 51.1506 10.2862C51.7093 11.3705 51.9886 12.6678 51.9886 14.1783C51.9886 15.6934 51.7069 16.9955 51.1435 18.0845C50.5848 19.1735 49.7775 20.0092 48.7216 20.5916C47.6705 21.174 46.4062 21.4652 44.929 21.4652ZM42.6349 19.1854H44.8011C45.8144 19.1854 46.6596 19.0007 47.3366 18.6314C48.0137 18.2573 48.5227 17.701 48.8636 16.9624C49.2045 16.219 49.375 15.291 49.375 14.1783C49.375 13.0656 49.2045 12.1423 48.8636 11.4084C48.5227 10.6697 48.0185 10.1181 47.3509 9.75355C46.688 9.38423 45.8641 9.19957 44.8793 9.19957H42.6349V19.1854Z" fill="white"/>
<path d="M59.2081 21.6783C58.1143 21.6783 57.1697 21.451 56.3743 20.9964C55.5836 20.5372 54.9751 19.8885 54.549 19.0504C54.1229 18.2076 53.9098 17.2157 53.9098 16.0746C53.9098 14.9524 54.1229 13.9676 54.549 13.12C54.9799 12.2678 55.5812 11.6049 56.353 11.1314C57.1248 10.6532 58.0315 10.4141 59.0732 10.4141C59.7455 10.4141 60.38 10.523 60.9766 10.7408C61.5779 10.9538 62.1082 11.2853 62.5675 11.7351C63.0315 12.1849 63.3961 12.7578 63.6612 13.4538C63.9264 14.1451 64.059 14.969 64.059 15.9254V16.7138H55.1172V14.9808H61.5945C61.5897 14.4884 61.4832 14.0504 61.2749 13.6669C61.0665 13.2786 60.7753 12.9732 60.4013 12.7507C60.032 12.5282 59.6011 12.4169 59.1087 12.4169C58.5831 12.4169 58.1214 12.5447 57.7237 12.8004C57.326 13.0514 57.0159 13.3828 56.7933 13.7947C56.5755 14.2019 56.4643 14.6494 56.4595 15.1371V16.6499C56.4595 17.2843 56.5755 17.8288 56.8075 18.2834C57.0395 18.7332 57.3639 19.0788 57.7805 19.3203C58.1972 19.5571 58.6849 19.6754 59.2436 19.6754C59.6177 19.6754 59.9562 19.6233 60.2592 19.5192C60.5623 19.4103 60.825 19.2517 61.0476 19.0433C61.2701 18.835 61.4382 18.5769 61.5518 18.2692L63.9524 18.5391C63.8009 19.1735 63.5121 19.7275 63.0859 20.201C62.6645 20.6697 62.1248 21.0343 61.4666 21.2947C60.8085 21.5504 60.0556 21.6783 59.2081 21.6783Z" fill="white"/>
<path d="M68.805 6.91974V21.4652H66.234V6.91974H68.805Z" fill="white"/>
<path d="M71.4489 21.4652V10.5561H74.0199V21.4652H71.4489ZM72.7415 9.00781C72.3343 9.00781 71.9839 8.87286 71.6903 8.60298C71.3968 8.32836 71.25 7.99928 71.25 7.61576C71.25 7.2275 71.3968 6.89843 71.6903 6.62855C71.9839 6.35392 72.3343 6.21661 72.7415 6.21661C73.1534 6.21661 73.5038 6.35392 73.7926 6.62855C74.0862 6.89843 74.233 7.2275 74.233 7.61576C74.233 7.99928 74.0862 8.32836 73.7926 8.60298C73.5038 8.87286 73.1534 9.00781 72.7415 9.00781Z" fill="white"/>
<path d="M81.408 25.7834C80.4847 25.7834 79.6916 25.6579 79.0288 25.407C78.3659 25.1607 77.8332 24.8293 77.4308 24.4126C77.0283 23.996 76.7489 23.5343 76.5927 23.0277L78.908 22.4666C79.0122 22.6797 79.1637 22.8904 79.3626 23.0987C79.5614 23.3118 79.829 23.487 80.1651 23.6243C80.506 23.7663 80.9345 23.8374 81.4506 23.8374C82.1798 23.8374 82.7835 23.6598 83.2617 23.3047C83.7399 22.9543 83.979 22.3767 83.979 21.5717V19.505H83.8512C83.7186 19.7701 83.5245 20.0424 83.2688 20.3217C83.0179 20.6011 82.6841 20.8355 82.2674 21.0249C81.8555 21.2142 81.337 21.3089 80.712 21.3089C79.8739 21.3089 79.114 21.1124 78.4322 20.7195C77.7551 20.3217 77.2153 19.7299 76.8129 18.9439C76.4151 18.1532 76.2163 17.1636 76.2163 15.9751C76.2163 14.7772 76.4151 13.7663 76.8129 12.9425C77.2153 12.1139 77.7575 11.4865 78.4393 11.0604C79.1211 10.6295 79.881 10.4141 80.7191 10.4141C81.3583 10.4141 81.8839 10.523 82.2958 10.7408C82.7125 10.9538 83.0439 11.2119 83.2901 11.5149C83.5363 11.8132 83.7234 12.0949 83.8512 12.3601H83.9933V10.5561H86.5288V21.6428C86.5288 22.5755 86.3062 23.3473 85.8612 23.9581C85.4161 24.5689 84.8076 25.0258 84.0359 25.3288C83.2641 25.6319 82.3881 25.7834 81.408 25.7834ZM81.4293 19.2919C81.9738 19.2919 82.4379 19.1593 82.8214 18.8942C83.2049 18.629 83.4961 18.2479 83.695 17.7507C83.8938 17.2535 83.9933 16.657 83.9933 15.9609C83.9933 15.2744 83.8938 14.6731 83.695 14.157C83.5008 13.6409 83.212 13.2408 82.8285 12.9567C82.4497 12.6678 81.9833 12.5234 81.4293 12.5234C80.8564 12.5234 80.3782 12.6726 79.9947 12.9709C79.6112 13.2692 79.3223 13.6787 79.1282 14.1996C78.9341 14.7157 78.837 15.3028 78.837 15.9609C78.837 16.6285 78.9341 17.2133 79.1282 17.7152C79.3271 18.2124 79.6183 18.6006 80.0018 18.88C80.39 19.1546 80.8659 19.2919 81.4293 19.2919Z" fill="white"/>
<path d="M91.7347 15.0731V21.4652H89.1637V6.91974H91.6779V12.4098H91.8058C92.0614 11.7943 92.4568 11.3089 92.9918 10.9538C93.5316 10.594 94.2182 10.4141 95.0515 10.4141C95.8091 10.4141 96.4696 10.5727 97.033 10.8899C97.5965 11.2071 98.0321 11.6712 98.3398 12.282C98.6523 12.8928 98.8086 13.6385 98.8086 14.5192V21.4652H96.2376V14.9169C96.2376 14.183 96.0482 13.6124 95.6694 13.2052C95.2953 12.7933 94.7698 12.5874 94.0927 12.5874C93.6381 12.5874 93.2309 12.6868 92.8711 12.8856C92.516 13.0798 92.2366 13.3615 92.033 13.7308C91.8342 14.1001 91.7347 14.5476 91.7347 15.0731Z" fill="white"/>
<path d="M106.877 10.5561V12.5447H100.605V10.5561H106.877ZM102.154 7.94247H104.725V18.1839C104.725 18.5296 104.777 18.7947 104.881 18.9794C104.99 19.1593 105.132 19.2824 105.307 19.3487C105.482 19.415 105.676 19.4481 105.89 19.4481C106.051 19.4481 106.197 19.4363 106.33 19.4126C106.467 19.389 106.571 19.3677 106.642 19.3487L107.076 21.3587C106.938 21.406 106.742 21.4581 106.486 21.5149C106.235 21.5717 105.927 21.6049 105.563 21.6143C104.919 21.6333 104.339 21.5362 103.823 21.3231C103.307 21.1053 102.897 20.7692 102.594 20.3146C102.296 19.8601 102.149 19.2919 102.154 18.6101V7.94247Z" fill="white"/>
<path d="M119.031 21.4652H114.102V6.91974H119.13C120.574 6.91974 121.815 7.21093 122.852 7.79332C123.893 8.37097 124.693 9.20194 125.252 10.2862C125.811 11.3705 126.09 12.6678 126.09 14.1783C126.09 15.6934 125.808 16.9955 125.245 18.0845C124.686 19.1735 123.879 20.0092 122.823 20.5916C121.772 21.174 120.508 21.4652 119.031 21.4652ZM116.737 19.1854H118.903C119.916 19.1854 120.761 19.0007 121.438 18.6314C122.115 18.2573 122.624 17.701 122.965 16.9624C123.306 16.219 123.477 15.291 123.477 14.1783C123.477 13.0656 123.306 12.1423 122.965 11.4084C122.624 10.6697 122.12 10.1181 121.452 9.75355C120.79 9.38423 119.966 9.19957 118.981 9.19957H116.737V19.1854Z" fill="white"/>
<path d="M133.31 21.6783C132.216 21.6783 131.271 21.451 130.476 20.9964C129.685 20.5372 129.077 19.8885 128.651 19.0504C128.224 18.2076 128.011 17.2157 128.011 16.0746C128.011 14.9524 128.224 13.9676 128.651 13.12C129.081 12.2678 129.683 11.6049 130.455 11.1314C131.226 10.6532 132.133 10.4141 133.175 10.4141C133.847 10.4141 134.482 10.523 135.078 10.7408C135.679 10.9538 136.21 11.2853 136.669 11.7351C137.133 12.1849 137.498 12.7578 137.763 13.4538C138.028 14.1451 138.161 14.969 138.161 15.9254V16.7138H129.219V14.9808H135.696C135.691 14.4884 135.585 14.0504 135.376 13.6669C135.168 13.2786 134.877 12.9732 134.503 12.7507C134.134 12.5282 133.703 12.4169 133.21 12.4169C132.685 12.4169 132.223 12.5447 131.825 12.8004C131.428 13.0514 131.117 13.3828 130.895 13.7947C130.677 14.2019 130.566 14.6494 130.561 15.1371V16.6499C130.561 17.2843 130.677 17.8288 130.909 18.2834C131.141 18.7332 131.465 19.0788 131.882 19.3203C132.299 19.5571 132.786 19.6754 133.345 19.6754C133.719 19.6754 134.058 19.6233 134.361 19.5192C134.664 19.4103 134.927 19.2517 135.149 19.0433C135.372 18.835 135.54 18.5769 135.653 18.2692L138.054 18.5391C137.902 19.1735 137.614 19.7275 137.188 20.201C136.766 20.6697 136.226 21.0343 135.568 21.2947C134.91 21.5504 134.157 21.6783 133.31 21.6783Z" fill="white"/>
<path d="M148.958 13.4396L146.614 13.6953C146.548 13.4586 146.432 13.236 146.266 13.0277C146.105 12.8194 145.887 12.6513 145.613 12.5234C145.338 12.3956 145.002 12.3317 144.604 12.3317C144.069 12.3317 143.619 12.4477 143.255 12.6797C142.895 12.9117 142.717 13.2124 142.722 13.5817C142.717 13.8989 142.833 14.157 143.07 14.3558C143.311 14.5547 143.709 14.718 144.263 14.8459L146.124 15.2436C147.156 15.4661 147.923 15.8189 148.425 16.3018C148.932 16.7848 149.187 17.4169 149.192 18.1981C149.187 18.8847 148.986 19.4908 148.588 20.0163C148.195 20.5372 147.649 20.9444 146.948 21.2379C146.247 21.5315 145.442 21.6783 144.533 21.6783C143.198 21.6783 142.123 21.3989 141.309 20.8402C140.494 20.2767 140.009 19.4931 139.853 18.4893L142.36 18.2479C142.473 18.7403 142.715 19.112 143.084 19.3629C143.453 19.6139 143.934 19.7393 144.526 19.7393C145.137 19.7393 145.627 19.6139 145.996 19.3629C146.37 19.112 146.557 18.8018 146.557 18.4325C146.557 18.12 146.436 17.862 146.195 17.6584C145.958 17.4548 145.589 17.2985 145.087 17.1896L143.226 16.799C142.18 16.5812 141.406 16.2142 140.904 15.6981C140.402 15.1773 140.153 14.5192 140.158 13.7237C140.153 13.0514 140.336 12.469 140.705 11.9766C141.079 11.4794 141.597 11.0959 142.26 10.826C142.928 10.5514 143.697 10.4141 144.569 10.4141C145.847 10.4141 146.853 10.6863 147.587 11.2308C148.326 11.7753 148.783 12.5116 148.958 13.4396Z" fill="white"/>
<path d="M153.656 18.0419L153.649 14.9382H154.061L157.981 10.5561H160.985L156.163 15.9254H155.63L153.656 18.0419ZM151.312 21.4652V6.91974H153.883V21.4652H151.312ZM158.159 21.4652L154.608 16.5007L156.341 14.6896L161.234 21.4652H158.159Z" fill="white"/>
<defs>
<linearGradient id="paint0_linear_1_10" x1="2.5" y1="3.5" x2="31" y2="29.5" gradientUnits="userSpaceOnUse">
<stop stop-color="#C084FC"/>
<stop offset="1" stop-color="#F472B6"/>
</linearGradient>
</defs>
</svg>
